<svg xmlns="http://www.w3.org/2000/svg" viewBox="0 0 1200 64" preserveAspectRatio="none" fill="none" stroke="currentColor" stroke-width="0.7" stroke-linecap="round"><polyline points="0.0,32.0 2.5,33.7 5.0,35.4 7.5,37.1 10.0,38.8 12.5,40.5 15.0,42.1 17.5,43.7 20.0,45.2 22.5,46.7 25.0,48.1 27.5,49.5 30.0,50.8 32.5,52.1 35.0,53.3 37.5,54.4 40.0,55.4 42.5,56.3 45.0,57.2 47.5,58.0 50.0,58.7 52.5,59.3 55.0,59.8 57.5,60.2 60.0,60.5 62.5,60.7 65.0,60.9 67.5,60.9 70.0,60.9 72.5,60.8 75.0,60.6 77.5,60.3 80.0,60.0 82.5,59.6 85.0,59.1 87.5,58.6 90.0,58.0 92.5,57.3 95.0,56.6 97.5,55.8 100.0,55.0 102.5,54.2 105.0,53.3 107.5,52.5 110.0,51.6 112.5,50.6 115.0,49.7 117.5,48.8 120.0,47.8 122.5,46.9 125.0,46.0 127.5,45.0 130.0,44.1 132.5,43.3 135.0,42.4 137.5,41.6 140.0,40.8 142.5,40.0 145.0,39.3 147.5,38.6 150.0,37.9 152.5,37.3 155.0,36.7 157.5,36.2 160.0,35.7 162.5,35.2 165.0,34.8 167.5,34.4 170.0,34.1 172.5,33.8 175.0,33.5 177.5,33.2 180.0,33.0 182.5,32.8 185.0,32.7 187.5,32.5 190.0,32.4 192.5,32.3 195.0,32.2 197.5,32.1 200.0,32.0 202.5,31.9 205.0,31.8 207.5,31.7 210.0,31.6 212.5,31.5 215.0,31.3 217.5,31.2 220.0,31.0 222.5,30.8 225.0,30.5 227.5,30.2 230.0,29.9 232.5,29.6 235.0,29.2 237.5,28.8 240.0,28.3 242.5,27.8 245.0,27.3 247.5,26.7 250.0,26.1 252.5,25.4 255.0,24.7 257.5,24.0 260.0,23.2 262.5,22.4 265.0,21.6 267.5,20.7 270.0,19.9 272.5,19.0 275.0,18.0 277.5,17.1 280.0,16.2 282.5,15.2 285.0,14.3 287.5,13.4 290.0,12.4 292.5,11.5 295.0,10.7 297.5,9.8 300.0,9.0 302.5,8.2 305.0,7.4 307.5,6.7 310.0,6.0 312.5,5.4 315.0,4.9 317.5,4.4 320.0,4.0 322.5,3.7 325.0,3.4 327.5,3.2 330.0,3.1 332.5,3.1 335.0,3.1 337.5,3.3 340.0,3.5 342.5,3.8 345.0,4.2 347.5,4.7 350.0,5.3 352.5,6.0 355.0,6.8 357.5,7.7 360.0,8.6 362.5,9.6 365.0,10.7 367.5,11.9 370.0,13.2 372.5,14.5 375.0,15.9 377.5,17.3 380.0,18.8 382.5,20.3 385.0,21.9 387.5,23.5 390.0,25.2 392.5,26.9 395.0,28.6 397.5,30.3 400.0,32.0 402.5,33.7 405.0,35.4 407.5,37.1 410.0,38.8 412.5,40.5 415.0,42.1 417.5,43.7 420.0,45.2 422.5,46.7 425.0,48.1 427.5,49.5 430.0,50.8 432.5,52.1 435.0,53.3 437.5,54.4 440.0,55.4 442.5,56.3 445.0,57.2 447.5,58.0 450.0,58.7 452.5,59.3 455.0,59.8 457.5,60.2 460.0,60.5 462.5,60.7 465.0,60.9 467.5,60.9 470.0,60.9 472.5,60.8 475.0,60.6 477.5,60.3 480.0,60.0 482.5,59.6 485.0,59.1 487.5,58.6 490.0,58.0 492.5,57.3 495.0,56.6 497.5,55.8 500.0,55.0 502.5,54.2 505.0,53.3 507.5,52.5 510.0,51.6 512.5,50.6 515.0,49.7 517.5,48.8 520.0,47.8 522.5,46.9 525.0,46.0 527.5,45.0 530.0,44.1 532.5,43.3 535.0,42.4 537.5,41.6 540.0,40.8 542.5,40.0 545.0,39.3 547.5,38.6 550.0,37.9 552.5,37.3 555.0,36.7 557.5,36.2 560.0,35.7 562.5,35.2 565.0,34.8 567.5,34.4 570.0,34.1 572.5,33.8 575.0,33.5 577.5,33.2 580.0,33.0 582.5,32.8 585.0,32.7 587.5,32.5 590.0,32.4 592.5,32.3 595.0,32.2 597.5,32.1 600.0,32.0 602.5,31.9 605.0,31.8 607.5,31.7 610.0,31.6 612.5,31.5 615.0,31.3 617.5,31.2 620.0,31.0 622.5,30.8 625.0,30.5 627.5,30.2 630.0,29.9 632.5,29.6 635.0,29.2 637.5,28.8 640.0,28.3 642.5,27.8 645.0,27.3 647.5,26.7 650.0,26.1 652.5,25.4 655.0,24.7 657.5,24.0 660.0,23.2 662.5,22.4 665.0,21.6 667.5,20.7 670.0,19.9 672.5,19.0 675.0,18.0 677.5,17.1 680.0,16.2 682.5,15.2 685.0,14.3 687.5,13.4 690.0,12.4 692.5,11.5 695.0,10.7 697.5,9.8 700.0,9.0 702.5,8.2 705.0,7.4 707.5,6.7 710.0,6.0 712.5,5.4 715.0,4.9 717.5,4.4 720.0,4.0 722.5,3.7 725.0,3.4 727.5,3.2 730.0,3.1 732.5,3.1 735.0,3.1 737.5,3.3 740.0,3.5 742.5,3.8 745.0,4.2 747.5,4.7 750.0,5.3 752.5,6.0 755.0,6.8 757.5,7.7 760.0,8.6 762.5,9.6 765.0,10.7 767.5,11.9 770.0,13.2 772.5,14.5 775.0,15.9 777.5,17.3 780.0,18.8 782.5,20.3 785.0,21.9 787.5,23.5 790.0,25.2 792.5,26.9 795.0,28.6 797.5,30.3 800.0,32.0 802.5,33.7 805.0,35.4 807.5,37.1 810.0,38.8 812.5,40.5 815.0,42.1 817.5,43.7 820.0,45.2 822.5,46.7 825.0,48.1 827.5,49.5 830.0,50.8 832.5,52.1 835.0,53.3 837.5,54.4 840.0,55.4 842.5,56.3 845.0,57.2 847.5,58.0 850.0,58.7 852.5,59.3 855.0,59.8 857.5,60.2 860.0,60.5 862.5,60.7 865.0,60.9 867.5,60.9 870.0,60.9 872.5,60.8 875.0,60.6 877.5,60.3 880.0,60.0 882.5,59.6 885.0,59.1 887.5,58.6 890.0,58.0 892.5,57.3 895.0,56.6 897.5,55.8 900.0,55.0 902.5,54.2 905.0,53.3 907.5,52.5 910.0,51.6 912.5,50.6 915.0,49.7 917.5,48.8 920.0,47.8 922.5,46.9 925.0,46.0 927.5,45.0 930.0,44.1 932.5,43.3 935.0,42.4 937.5,41.6 940.0,40.8 942.5,40.0 945.0,39.3 947.5,38.6 950.0,37.9 952.5,37.3 955.0,36.7 957.5,36.2 960.0,35.7 962.5,35.2 965.0,34.8 967.5,34.4 970.0,34.1 972.5,33.8 975.0,33.5 977.5,33.2 980.0,33.0 982.5,32.8 985.0,32.7 987.5,32.5 990.0,32.4 992.5,32.3 995.0,32.2 997.5,32.1 1000.0,32.0 1002.5,31.9 1005.0,31.8 1007.5,31.7 1010.0,31.6 1012.5,31.5 1015.0,31.3 1017.5,31.2 1020.0,31.0 1022.5,30.8 1025.0,30.5 1027.5,30.2 1030.0,29.9 1032.5,29.6 1035.0,29.2 1037.5,28.8 1040.0,28.3 1042.5,27.8 1045.0,27.3 1047.5,26.7 1050.0,26.1 1052.5,25.4 1055.0,24.7 1057.5,24.0 1060.0,23.2 1062.5,22.4 1065.0,21.6 1067.5,20.7 1070.0,19.9 1072.5,19.0 1075.0,18.0 1077.5,17.1 1080.0,16.2 1082.5,15.2 1085.0,14.3 1087.5,13.4 1090.0,12.4 1092.5,11.5 1095.0,10.7 1097.5,9.8 1100.0,9.0 1102.5,8.2 1105.0,7.4 1107.5,6.7 1110.0,6.0 1112.5,5.4 1115.0,4.9 1117.5,4.4 1120.0,4.0 1122.5,3.7 1125.0,3.4 1127.5,3.2 1130.0,3.1 1132.5,3.1 1135.0,3.1 1137.5,3.3 1140.0,3.5 1142.5,3.8 1145.0,4.2 1147.5,4.7 1150.0,5.3 1152.5,6.0 1155.0,6.8 1157.5,7.7 1160.0,8.6 1162.5,9.6 1165.0,10.7 1167.5,11.9 1170.0,13.2 1172.5,14.5 1175.0,15.9 1177.5,17.3 1180.0,18.8 1182.5,20.3 1185.0,21.9 1187.5,23.5 1190.0,25.2 1192.5,26.9 1195.0,28.6 1197.5,30.3 1200.0,32.0"/><polyline points="0.0,39.7 2.5,40.4 5.0,41.2 7.5,41.9 10.0,42.7 12.5,43.5 15.0,44.3 17.5,45.2 20.0,46.1 22.5,47.0 25.0,47.9 27.5,48.8 30.0,49.7 32.5,50.6 35.0,51.4 37.5,52.3 40.0,53.2 42.5,54.0 45.0,54.8 47.5,55.6 50.0,56.3 52.5,57.0 55.0,57.6 57.5,58.2 60.0,58.7 62.5,59.2 65.0,59.6 67.5,59.9 70.0,60.1 72.5,60.3 75.0,60.4 77.5,60.4 80.0,60.4 82.5,60.2 85.0,60.0 87.5,59.6 90.0,59.2 92.5,58.7 95.0,58.1 97.5,57.4 100.0,56.6 102.5,55.8 105.0,54.8 107.5,53.8 110.0,52.7 112.5,51.5 115.0,50.3 117.5,49.0 120.0,47.6 122.5,46.2 125.0,44.7 127.5,43.1 130.0,41.5 132.5,39.9 135.0,38.3 137.5,36.6 140.0,34.9 142.5,33.2 145.0,31.5 147.5,29.7 150.0,28.0 152.5,26.3 155.0,24.7 157.5,23.0 160.0,21.4 162.5,19.8 165.0,18.2 167.5,16.7 170.0,15.3 172.5,13.9 175.0,12.6 177.5,11.4 180.0,10.2 182.5,9.1 185.0,8.1 187.5,7.1 190.0,6.3 192.5,5.5 195.0,4.8 197.5,4.2 200.0,3.7 202.5,3.3 205.0,3.0 207.5,2.8 210.0,2.6 212.5,2.6 215.0,2.6 217.5,2.7 220.0,2.9 222.5,3.2 225.0,3.6 227.5,4.0 230.0,4.5 232.5,5.1 235.0,5.7 237.5,6.4 240.0,7.1 242.5,7.9 245.0,8.7 247.5,9.6 250.0,10.5 252.5,11.4 255.0,12.4 257.5,13.3 260.0,14.3 262.5,15.3 265.0,16.2 267.5,17.2 270.0,18.2 272.5,19.1 275.0,20.1 277.5,21.0 280.0,21.9 282.5,22.8 285.0,23.6 287.5,24.4 290.0,25.2 292.5,25.9 295.0,26.6 297.5,27.3 300.0,27.9 302.5,28.5 305.0,29.0 307.5,29.5 310.0,30.0 312.5,30.4 315.0,30.8 317.5,31.1 320.0,31.4 322.5,31.7 325.0,31.9 327.5,32.1 330.0,32.3 332.5,32.4 335.0,32.6 337.5,32.7 340.0,32.8 342.5,32.9 345.0,33.0 347.5,33.1 350.0,33.2 352.5,33.3 355.0,33.4 357.5,33.5 360.0,33.6 362.5,33.8 365.0,33.9 367.5,34.1 370.0,34.4 372.5,34.6 375.0,34.9 377.5,35.2 380.0,35.6 382.5,36.0 385.0,36.4 387.5,36.8 390.0,37.3 392.5,37.9 395.0,38.5 397.5,39.1 400.0,39.7 402.5,40.4 405.0,41.2 407.5,41.9 410.0,42.7 412.5,43.5 415.0,44.3 417.5,45.2 420.0,46.1 422.5,47.0 425.0,47.9 427.5,48.8 430.0,49.7 432.5,50.6 435.0,51.4 437.5,52.3 440.0,53.2 442.5,54.0 445.0,54.8 447.5,55.6 450.0,56.3 452.5,57.0 455.0,57.6 457.5,58.2 460.0,58.7 462.5,59.2 465.0,59.6 467.5,59.9 470.0,60.1 472.5,60.3 475.0,60.4 477.5,60.4 480.0,60.4 482.5,60.2 485.0,60.0 487.5,59.6 490.0,59.2 492.5,58.7 495.0,58.1 497.5,57.4 500.0,56.6 502.5,55.8 505.0,54.8 507.5,53.8 510.0,52.7 512.5,51.5 515.0,50.3 517.5,49.0 520.0,47.6 522.5,46.2 525.0,44.7 527.5,43.1 530.0,41.5 532.5,39.9 535.0,38.3 537.5,36.6 540.0,34.9 542.5,33.2 545.0,31.5 547.5,29.7 550.0,28.0 552.5,26.3 555.0,24.7 557.5,23.0 560.0,21.4 562.5,19.8 565.0,18.2 567.5,16.7 570.0,15.3 572.5,13.9 575.0,12.6 577.5,11.4 580.0,10.2 582.5,9.1 585.0,8.1 587.5,7.1 590.0,6.3 592.5,5.5 595.0,4.8 597.5,4.2 600.0,3.7 602.5,3.3 605.0,3.0 607.5,2.8 610.0,2.6 612.5,2.6 615.0,2.6 617.5,2.7 620.0,2.9 622.5,3.2 625.0,3.6 627.5,4.0 630.0,4.5 632.5,5.1 635.0,5.7 637.5,6.4 640.0,7.1 642.5,7.9 645.0,8.7 647.5,9.6 650.0,10.5 652.5,11.4 655.0,12.4 657.5,13.3 660.0,14.3 662.5,15.3 665.0,16.2 667.5,17.2 670.0,18.2 672.5,19.1 675.0,20.1 677.5,21.0 680.0,21.9 682.5,22.8 685.0,23.6 687.5,24.4 690.0,25.2 692.5,25.9 695.0,26.6 697.5,27.3 700.0,27.9 702.5,28.5 705.0,29.0 707.5,29.5 710.0,30.0 712.5,30.4 715.0,30.8 717.5,31.1 720.0,31.4 722.5,31.7 725.0,31.9 727.5,32.1 730.0,32.3 732.5,32.4 735.0,32.6 737.5,32.7 740.0,32.8 742.5,32.9 745.0,33.0 747.5,33.1 750.0,33.2 752.5,33.3 755.0,33.4 757.5,33.5 760.0,33.6 762.5,33.8 765.0,33.9 767.5,34.1 770.0,34.4 772.5,34.6 775.0,34.9 777.5,35.2 780.0,35.6 782.5,36.0 785.0,36.4 787.5,36.8 790.0,37.3 792.5,37.9 795.0,38.5 797.5,39.1 800.0,39.7 802.5,40.4 805.0,41.2 807.5,41.9 810.0,42.7 812.5,43.5 815.0,44.3 817.5,45.2 820.0,46.1 822.5,47.0 825.0,47.9 827.5,48.8 830.0,49.7 832.5,50.6 835.0,51.4 837.5,52.3 840.0,53.2 842.5,54.0 845.0,54.8 847.5,55.6 850.0,56.3 852.5,57.0 855.0,57.6 857.5,58.2 860.0,58.7 862.5,59.2 865.0,59.6 867.5,59.9 870.0,60.1 872.5,60.3 875.0,60.4 877.5,60.4 880.0,60.4 882.5,60.2 885.0,60.0 887.5,59.6 890.0,59.2 892.5,58.7 895.0,58.1 897.5,57.4 900.0,56.6 902.5,55.8 905.0,54.8 907.5,53.8 910.0,52.7 912.5,51.5 915.0,50.3 917.5,49.0 920.0,47.6 922.5,46.2 925.0,44.7 927.5,43.1 930.0,41.5 932.5,39.9 935.0,38.3 937.5,36.6 940.0,34.9 942.5,33.2 945.0,31.5 947.5,29.7 950.0,28.0 952.5,26.3 955.0,24.7 957.5,23.0 960.0,21.4 962.5,19.8 965.0,18.2 967.5,16.7 970.0,15.3 972.5,13.9 975.0,12.6 977.5,11.4 980.0,10.2 982.5,9.1 985.0,8.1 987.5,7.1 990.0,6.3 992.5,5.5 995.0,4.8 997.5,4.2 1000.0,3.7 1002.5,3.3 1005.0,3.0 1007.5,2.8 1010.0,2.6 1012.5,2.6 1015.0,2.6 1017.5,2.7 1020.0,2.9 1022.5,3.2 1025.0,3.6 1027.5,4.0 1030.0,4.5 1032.5,5.1 1035.0,5.7 1037.5,6.4 1040.0,7.1 1042.5,7.9 1045.0,8.7 1047.5,9.6 1050.0,10.5 1052.5,11.4 1055.0,12.4 1057.5,13.3 1060.0,14.3 1062.5,15.3 1065.0,16.2 1067.5,17.2 1070.0,18.2 1072.5,19.1 1075.0,20.1 1077.5,21.0 1080.0,21.9 1082.5,22.8 1085.0,23.6 1087.5,24.4 1090.0,25.2 1092.5,25.9 1095.0,26.6 1097.5,27.3 1100.0,27.9 1102.5,28.5 1105.0,29.0 1107.5,29.5 1110.0,30.0 1112.5,30.4 1115.0,30.8 1117.5,31.1 1120.0,31.4 1122.5,31.7 1125.0,31.9 1127.5,32.1 1130.0,32.3 1132.5,32.4 1135.0,32.6 1137.5,32.7 1140.0,32.8 1142.5,32.9 1145.0,33.0 1147.5,33.1 1150.0,33.2 1152.5,33.3 1155.0,33.4 1157.5,33.5 1160.0,33.6 1162.5,33.8 1165.0,33.9 1167.5,34.1 1170.0,34.4 1172.5,34.6 1175.0,34.9 1177.5,35.2 1180.0,35.6 1182.5,36.0 1185.0,36.4 1187.5,36.8 1190.0,37.3 1192.5,37.9 1195.0,38.5 1197.5,39.1 1200.0,39.7"/><polyline points="0.0,51.7 2.5,50.7 5.0,49.7 7.5,48.7 10.0,47.7 12.5,46.7 15.0,45.6 17.5,44.7 20.0,43.7 22.5,42.7 25.0,41.8 27.5,40.9 30.0,40.0 32.5,39.1 35.0,38.3 37.5,37.5 40.0,36.8 42.5,36.1 45.0,35.4 47.5,34.8 50.0,34.3 52.5,33.7 55.0,33.2 57.5,32.8 60.0,32.4 62.5,32.0 65.0,31.7 67.5,31.4 70.0,31.2 72.5,30.9 75.0,30.7 77.5,30.6 80.0,30.4 82.5,30.3 85.0,30.2 87.5,30.1 90.0,30.0 92.5,29.9 95.0,29.8 97.5,29.7 100.0,29.6 102.5,29.5 105.0,29.4 107.5,29.3 110.0,29.1 112.5,29.0 115.0,28.8 117.5,28.5 120.0,28.3 122.5,28.0 125.0,27.7 127.5,27.3 130.0,26.9 132.5,26.5 135.0,26.0 137.5,25.5 140.0,25.0 142.5,24.4 145.0,23.8 147.5,23.2 150.0,22.5 152.5,21.8 155.0,21.0 157.5,20.3 160.0,19.5 162.5,18.7 165.0,17.8 167.5,17.0 170.0,16.1 172.5,15.3 175.0,14.4 177.5,13.5 180.0,12.7 182.5,11.9 185.0,11.0 187.5,10.2 190.0,9.5 192.5,8.7 195.0,8.0 197.5,7.4 200.0,6.8 202.5,6.2 205.0,5.7 207.5,5.3 210.0,4.9 212.5,4.6 215.0,4.4 217.5,4.2 220.0,4.1 222.5,4.1 225.0,4.2 227.5,4.4 230.0,4.6 232.5,4.9 235.0,5.4 237.5,5.9 240.0,6.5 242.5,7.2 245.0,7.9 247.5,8.8 250.0,9.7 252.5,10.8 255.0,11.9 257.5,13.0 260.0,14.3 262.5,15.6 265.0,17.0 267.5,18.4 270.0,19.9 272.5,21.4 275.0,23.0 277.5,24.6 280.0,26.3 282.5,28.0 285.0,29.7 287.5,31.4 290.0,33.1 292.5,34.8 295.0,36.5 297.5,38.2 300.0,39.9 302.5,41.5 305.0,43.2 307.5,44.7 310.0,46.3 312.5,47.8 315.0,49.2 317.5,50.6 320.0,51.9 322.5,53.2 325.0,54.4 327.5,55.5 330.0,56.5 332.5,57.4 335.0,58.3 337.5,59.0 340.0,59.7 342.5,60.3 345.0,60.8 347.5,61.2 350.0,61.5 352.5,61.7 355.0,61.8 357.5,61.9 360.0,61.8 362.5,61.7 365.0,61.5 367.5,61.2 370.0,60.8 372.5,60.4 375.0,59.8 377.5,59.2 380.0,58.6 382.5,57.9 385.0,57.1 387.5,56.3 390.0,55.5 392.5,54.6 395.0,53.6 397.5,52.7 400.0,51.7 402.5,50.7 405.0,49.7 407.5,48.7 410.0,47.7 412.5,46.7 415.0,45.6 417.5,44.7 420.0,43.7 422.5,42.7 425.0,41.8 427.5,40.9 430.0,40.0 432.5,39.1 435.0,38.3 437.5,37.5 440.0,36.8 442.5,36.1 445.0,35.4 447.5,34.8 450.0,34.3 452.5,33.7 455.0,33.2 457.5,32.8 460.0,32.4 462.5,32.0 465.0,31.7 467.5,31.4 470.0,31.2 472.5,30.9 475.0,30.7 477.5,30.6 480.0,30.4 482.5,30.3 485.0,30.2 487.5,30.1 490.0,30.0 492.5,29.9 495.0,29.8 497.5,29.7 500.0,29.6 502.5,29.5 505.0,29.4 507.5,29.3 510.0,29.1 512.5,29.0 515.0,28.8 517.5,28.5 520.0,28.3 522.5,28.0 525.0,27.7 527.5,27.3 530.0,26.9 532.5,26.5 535.0,26.0 537.5,25.5 540.0,25.0 542.5,24.4 545.0,23.8 547.5,23.2 550.0,22.5 552.5,21.8 555.0,21.0 557.5,20.3 560.0,19.5 562.5,18.7 565.0,17.8 567.5,17.0 570.0,16.1 572.5,15.3 575.0,14.4 577.5,13.5 580.0,12.7 582.5,11.9 585.0,11.0 587.5,10.2 590.0,9.5 592.5,8.7 595.0,8.0 597.5,7.4 600.0,6.8 602.5,6.2 605.0,5.7 607.5,5.3 610.0,4.9 612.5,4.6 615.0,4.4 617.5,4.2 620.0,4.1 622.5,4.1 625.0,4.2 627.5,4.4 630.0,4.6 632.5,4.9 635.0,5.4 637.5,5.9 640.0,6.5 642.5,7.2 645.0,7.9 647.5,8.8 650.0,9.7 652.5,10.8 655.0,11.9 657.5,13.0 660.0,14.3 662.5,15.6 665.0,17.0 667.5,18.4 670.0,19.9 672.5,21.4 675.0,23.0 677.5,24.6 680.0,26.3 682.5,28.0 685.0,29.7 687.5,31.4 690.0,33.1 692.5,34.8 695.0,36.5 697.5,38.2 700.0,39.9 702.5,41.5 705.0,43.2 707.5,44.7 710.0,46.3 712.5,47.8 715.0,49.2 717.5,50.6 720.0,51.9 722.5,53.2 725.0,54.4 727.5,55.5 730.0,56.5 732.5,57.4 735.0,58.3 737.5,59.0 740.0,59.7 742.5,60.3 745.0,60.8 747.5,61.2 750.0,61.5 752.5,61.7 755.0,61.8 757.5,61.9 760.0,61.8 762.5,61.7 765.0,61.5 767.5,61.2 770.0,60.8 772.5,60.4 775.0,59.8 777.5,59.2 780.0,58.6 782.5,57.9 785.0,57.1 787.5,56.3 790.0,55.5 792.5,54.6 795.0,53.6 797.5,52.7 800.0,51.7 802.5,50.7 805.0,49.7 807.5,48.7 810.0,47.7 812.5,46.7 815.0,45.6 817.5,44.7 820.0,43.7 822.5,42.7 825.0,41.8 827.5,40.9 830.0,40.0 832.5,39.1 835.0,38.3 837.5,37.5 840.0,36.8 842.5,36.1 845.0,35.4 847.5,34.8 850.0,34.3 852.5,33.7 855.0,33.2 857.5,32.8 860.0,32.4 862.5,32.0 865.0,31.7 867.5,31.4 870.0,31.2 872.5,30.9 875.0,30.7 877.5,30.6 880.0,30.4 882.5,30.3 885.0,30.2 887.5,30.1 890.0,30.0 892.5,29.9 895.0,29.8 897.5,29.7 900.0,29.6 902.5,29.5 905.0,29.4 907.5,29.3 910.0,29.1 912.5,29.0 915.0,28.8 917.5,28.5 920.0,28.3 922.5,28.0 925.0,27.7 927.5,27.3 930.0,26.9 932.5,26.5 935.0,26.0 937.5,25.5 940.0,25.0 942.5,24.4 945.0,23.8 947.5,23.2 950.0,22.5 952.5,21.8 955.0,21.0 957.5,20.3 960.0,19.5 962.5,18.7 965.0,17.8 967.5,17.0 970.0,16.1 972.5,15.3 975.0,14.4 977.5,13.5 980.0,12.7 982.5,11.9 985.0,11.0 987.5,10.2 990.0,9.5 992.5,8.7 995.0,8.0 997.5,7.4 1000.0,6.8 1002.5,6.2 1005.0,5.7 1007.5,5.3 1010.0,4.9 1012.5,4.6 1015.0,4.4 1017.5,4.2 1020.0,4.1 1022.5,4.1 1025.0,4.2 1027.5,4.4 1030.0,4.6 1032.5,4.9 1035.0,5.4 1037.5,5.9 1040.0,6.5 1042.5,7.2 1045.0,7.9 1047.5,8.8 1050.0,9.7 1052.5,10.8 1055.0,11.9 1057.5,13.0 1060.0,14.3 1062.5,15.6 1065.0,17.0 1067.5,18.4 1070.0,19.9 1072.5,21.4 1075.0,23.0 1077.5,24.6 1080.0,26.3 1082.5,28.0 1085.0,29.7 1087.5,31.4 1090.0,33.1 1092.5,34.8 1095.0,36.5 1097.5,38.2 1100.0,39.9 1102.5,41.5 1105.0,43.2 1107.5,44.7 1110.0,46.3 1112.5,47.8 1115.0,49.2 1117.5,50.6 1120.0,51.9 1122.5,53.2 1125.0,54.4 1127.5,55.5 1130.0,56.5 1132.5,57.4 1135.0,58.3 1137.5,59.0 1140.0,59.7 1142.5,60.3 1145.0,60.8 1147.5,61.2 1150.0,61.5 1152.5,61.7 1155.0,61.8 1157.5,61.9 1160.0,61.8 1162.5,61.7 1165.0,61.5 1167.5,61.2 1170.0,60.8 1172.5,60.4 1175.0,59.8 1177.5,59.2 1180.0,58.6 1182.5,57.9 1185.0,57.1 1187.5,56.3 1190.0,55.5 1192.5,54.6 1195.0,53.6 1197.5,52.7 1200.0,51.7"/><polyline points="0.0,51.5 2.5,50.4 5.0,49.1 7.5,47.8 10.0,46.4 12.5,45.0 15.0,43.5 17.5,42.0 20.0,40.4 22.5,38.8 25.0,37.2 27.5,35.5 30.0,33.8 32.5,32.1 35.0,30.4 37.5,28.7 40.0,27.0 42.5,25.3 45.0,23.6 47.5,21.9 50.0,20.3 52.5,18.7 55.0,17.2 57.5,15.7 60.0,14.3 62.5,12.9 65.0,11.6 67.5,10.3 70.0,9.1 72.5,8.0 75.0,7.0 77.5,6.1 80.0,5.2 82.5,4.5 85.0,3.8 87.5,3.2 90.0,2.7 92.5,2.3 95.0,2.0 97.5,1.8 100.0,1.7 102.5,1.7 105.0,1.7 107.5,1.9 110.0,2.1 112.5,2.4 115.0,2.8 117.5,3.3 120.0,3.9 122.5,4.5 125.0,5.1 127.5,5.9 130.0,6.7 132.5,7.5 135.0,8.4 137.5,9.3 140.0,10.3 142.5,11.2 145.0,12.3 147.5,13.3 150.0,14.3 152.5,15.4 155.0,16.4 157.5,17.5 160.0,18.5 162.5,19.6 165.0,20.6 167.5,21.6 170.0,22.6 172.5,23.5 175.0,24.4 177.5,25.3 180.0,26.2 182.5,27.0 185.0,27.8 187.5,28.5 190.0,29.2 192.5,29.9 195.0,30.5 197.5,31.0 200.0,31.5 202.5,32.0 205.0,32.4 207.5,32.8 210.0,33.2 212.5,33.5 215.0,33.8 217.5,34.0 220.0,34.2 222.5,34.4 225.0,34.6 227.5,34.7 230.0,34.8 232.5,34.9 235.0,35.0 237.5,35.1 240.0,35.2 242.5,35.3 245.0,35.3 247.5,35.4 250.0,35.5 252.5,35.6 255.0,35.8 257.5,35.9 260.0,36.1 262.5,36.3 265.0,36.5 267.5,36.8 270.0,37.1 272.5,37.4 275.0,37.7 277.5,38.1 280.0,38.5 282.5,39.0 285.0,39.5 287.5,40.0 290.0,40.6 292.5,41.2 295.0,41.9 297.5,42.5 300.0,43.2 302.5,44.0 305.0,44.7 307.5,45.5 310.0,46.3 312.5,47.1 315.0,47.9 317.5,48.7 320.0,49.5 322.5,50.3 325.0,51.1 327.5,51.9 330.0,52.7 332.5,53.5 335.0,54.2 337.5,54.9 340.0,55.6 342.5,56.2 345.0,56.8 347.5,57.3 350.0,57.8 352.5,58.2 355.0,58.6 357.5,58.9 360.0,59.1 362.5,59.3 365.0,59.3 367.5,59.3 370.0,59.2 372.5,59.1 375.0,58.8 377.5,58.5 380.0,58.0 382.5,57.5 385.0,56.9 387.5,56.2 390.0,55.4 392.5,54.6 395.0,53.6 397.5,52.6 400.0,51.5 402.5,50.4 405.0,49.1 407.5,47.8 410.0,46.4 412.5,45.0 415.0,43.5 417.5,42.0 420.0,40.4 422.5,38.8 425.0,37.2 427.5,35.5 430.0,33.8 432.5,32.1 435.0,30.4 437.5,28.7 440.0,27.0 442.5,25.3 445.0,23.6 447.5,21.9 450.0,20.3 452.5,18.7 455.0,17.2 457.5,15.7 460.0,14.3 462.5,12.9 465.0,11.6 467.5,10.3 470.0,9.1 472.5,8.0 475.0,7.0 477.5,6.1 480.0,5.2 482.5,4.5 485.0,3.8 487.5,3.2 490.0,2.7 492.5,2.3 495.0,2.0 497.5,1.8 500.0,1.7 502.5,1.7 505.0,1.7 507.5,1.9 510.0,2.1 512.5,2.4 515.0,2.8 517.5,3.3 520.0,3.9 522.5,4.5 525.0,5.1 527.5,5.9 530.0,6.7 532.5,7.5 535.0,8.4 537.5,9.3 540.0,10.3 542.5,11.2 545.0,12.3 547.5,13.3 550.0,14.3 552.5,15.4 555.0,16.4 557.5,17.5 560.0,18.5 562.5,19.6 565.0,20.6 567.5,21.6 570.0,22.6 572.5,23.5 575.0,24.4 577.5,25.3 580.0,26.2 582.5,27.0 585.0,27.8 587.5,28.5 590.0,29.2 592.5,29.9 595.0,30.5 597.5,31.0 600.0,31.5 602.5,32.0 605.0,32.4 607.5,32.8 610.0,33.2 612.5,33.5 615.0,33.8 617.5,34.0 620.0,34.2 622.5,34.4 625.0,34.6 627.5,34.7 630.0,34.8 632.5,34.9 635.0,35.0 637.5,35.1 640.0,35.2 642.5,35.3 645.0,35.3 647.5,35.4 650.0,35.5 652.5,35.6 655.0,35.8 657.5,35.9 660.0,36.1 662.5,36.3 665.0,36.5 667.5,36.8 670.0,37.1 672.5,37.4 675.0,37.7 677.5,38.1 680.0,38.5 682.5,39.0 685.0,39.5 687.5,40.0 690.0,40.6 692.5,41.2 695.0,41.9 697.5,42.5 700.0,43.2 702.5,44.0 705.0,44.7 707.5,45.5 710.0,46.3 712.5,47.1 715.0,47.9 717.5,48.7 720.0,49.5 722.5,50.3 725.0,51.1 727.5,51.9 730.0,52.7 732.5,53.5 735.0,54.2 737.5,54.9 740.0,55.6 742.5,56.2 745.0,56.8 747.5,57.3 750.0,57.8 752.5,58.2 755.0,58.6 757.5,58.9 760.0,59.1 762.5,59.3 765.0,59.3 767.5,59.3 770.0,59.2 772.5,59.1 775.0,58.8 777.5,58.5 780.0,58.0 782.5,57.5 785.0,56.9 787.5,56.2 790.0,55.4 792.5,54.6 795.0,53.6 797.5,52.6 800.0,51.5 802.5,50.4 805.0,49.1 807.5,47.8 810.0,46.4 812.5,45.0 815.0,43.5 817.5,42.0 820.0,40.4 822.5,38.8 825.0,37.2 827.5,35.5 830.0,33.8 832.5,32.1 835.0,30.4 837.5,28.7 840.0,27.0 842.5,25.3 845.0,23.6 847.5,21.9 850.0,20.3 852.5,18.7 855.0,17.2 857.5,15.7 860.0,14.3 862.5,12.9 865.0,11.6 867.5,10.3 870.0,9.1 872.5,8.0 875.0,7.0 877.5,6.1 880.0,5.2 882.5,4.5 885.0,3.8 887.5,3.2 890.0,2.7 892.5,2.3 895.0,2.0 897.5,1.8 900.0,1.7 902.5,1.7 905.0,1.7 907.5,1.9 910.0,2.1 912.5,2.4 915.0,2.8 917.5,3.3 920.0,3.9 922.5,4.5 925.0,5.1 927.5,5.9 930.0,6.7 932.5,7.5 935.0,8.4 937.5,9.3 940.0,10.3 942.5,11.2 945.0,12.3 947.5,13.3 950.0,14.3 952.5,15.4 955.0,16.4 957.5,17.5 960.0,18.5 962.5,19.6 965.0,20.6 967.5,21.6 970.0,22.6 972.5,23.5 975.0,24.4 977.5,25.3 980.0,26.2 982.5,27.0 985.0,27.8 987.5,28.5 990.0,29.2 992.5,29.9 995.0,30.5 997.5,31.0 1000.0,31.5 1002.5,32.0 1005.0,32.4 1007.5,32.8 1010.0,33.2 1012.5,33.5 1015.0,33.8 1017.5,34.0 1020.0,34.2 1022.5,34.4 1025.0,34.6 1027.5,34.7 1030.0,34.8 1032.5,34.9 1035.0,35.0 1037.5,35.1 1040.0,35.2 1042.5,35.3 1045.0,35.3 1047.5,35.4 1050.0,35.5 1052.5,35.6 1055.0,35.8 1057.5,35.9 1060.0,36.1 1062.5,36.3 1065.0,36.5 1067.5,36.8 1070.0,37.1 1072.5,37.4 1075.0,37.7 1077.5,38.1 1080.0,38.5 1082.5,39.0 1085.0,39.5 1087.5,40.0 1090.0,40.6 1092.5,41.2 1095.0,41.9 1097.5,42.5 1100.0,43.2 1102.5,44.0 1105.0,44.7 1107.5,45.5 1110.0,46.3 1112.5,47.1 1115.0,47.9 1117.5,48.7 1120.0,49.5 1122.5,50.3 1125.0,51.1 1127.5,51.9 1130.0,52.7 1132.5,53.5 1135.0,54.2 1137.5,54.9 1140.0,55.6 1142.5,56.2 1145.0,56.8 1147.5,57.3 1150.0,57.8 1152.5,58.2 1155.0,58.6 1157.5,58.9 1160.0,59.1 1162.5,59.3 1165.0,59.3 1167.5,59.3 1170.0,59.2 1172.5,59.1 1175.0,58.8 1177.5,58.5 1180.0,58.0 1182.5,57.5 1185.0,56.9 1187.5,56.2 1190.0,55.4 1192.5,54.6 1195.0,53.6 1197.5,52.6 1200.0,51.5"/><polyline points="0.0,27.3 2.5,27.2 5.0,27.1 7.5,26.9 10.0,26.7 12.5,26.5 15.0,26.2 17.5,25.9 20.0,25.6 22.5,25.3 25.0,24.9 27.5,24.5 30.0,24.0 32.5,23.5 35.0,23.0 37.5,22.4 40.0,21.8 42.5,21.2 45.0,20.5 47.5,19.9 50.0,19.2 52.5,18.4 55.0,17.7 57.5,16.9 60.0,16.2 62.5,15.4 65.0,14.6 67.5,13.8 70.0,13.0 72.5,12.3 75.0,11.5 77.5,10.8 80.0,10.1 82.5,9.4 85.0,8.8 87.5,8.2 90.0,7.6 92.5,7.1 95.0,6.7 97.5,6.3 100.0,5.9 102.5,5.7 105.0,5.4 107.5,5.3 110.0,5.3 112.5,5.3 115.0,5.4 117.5,5.5 120.0,5.8 122.5,6.2 125.0,6.6 127.5,7.1 130.0,7.7 132.5,8.4 135.0,9.2 137.5,10.0 140.0,11.0 142.5,12.0 145.0,13.1 147.5,14.3 150.0,15.5 152.5,16.8 155.0,18.2 157.5,19.6 160.0,21.1 162.5,22.6 165.0,24.2 167.5,25.8 170.0,27.4 172.5,29.1 175.0,30.8 177.5,32.5 180.0,34.2 182.5,35.9 185.0,37.6 187.5,39.3 190.0,40.9 192.5,42.6 195.0,44.2 197.5,45.8 200.0,47.3 202.5,48.8 205.0,50.2 207.5,51.6 210.0,52.9 212.5,54.2 215.0,55.3 217.5,56.4 220.0,57.5 222.5,58.4 225.0,59.2 227.5,60.0 230.0,60.7 232.5,61.2 235.0,61.7 237.5,62.1 240.0,62.4 242.5,62.6 245.0,62.7 247.5,62.7 250.0,62.6 252.5,62.5 255.0,62.2 257.5,61.9 260.0,61.5 262.5,61.0 265.0,60.4 267.5,59.8 270.0,59.1 272.5,58.4 275.0,57.5 277.5,56.7 280.0,55.8 282.5,54.8 285.0,53.8 287.5,52.8 290.0,51.8 292.5,50.7 295.0,49.6 297.5,48.5 300.0,47.4 302.5,46.4 305.0,45.3 307.5,44.2 310.0,43.1 312.5,42.1 315.0,41.1 317.5,40.1 320.0,39.1 322.5,38.2 325.0,37.3 327.5,36.4 330.0,35.6 332.5,34.9 335.0,34.1 337.5,33.4 340.0,32.8 342.5,32.2 345.0,31.7 347.5,31.2 350.0,30.7 352.5,30.3 355.0,29.9 357.5,29.6 360.0,29.3 362.5,29.0 365.0,28.8 367.5,28.6 370.0,28.4 372.5,28.3 375.0,28.2 377.5,28.1 380.0,28.0 382.5,27.9 385.0,27.8 387.5,27.8 390.0,27.7 392.5,27.6 395.0,27.5 397.5,27.4 400.0,27.3 402.5,27.2 405.0,27.1 407.5,26.9 410.0,26.7 412.5,26.5 415.0,26.2 417.5,25.9 420.0,25.6 422.5,25.3 425.0,24.9 427.5,24.5 430.0,24.0 432.5,23.5 435.0,23.0 437.5,22.4 440.0,21.8 442.5,21.2 445.0,20.5 447.5,19.9 450.0,19.2 452.5,18.4 455.0,17.7 457.5,16.9 460.0,16.2 462.5,15.4 465.0,14.6 467.5,13.8 470.0,13.0 472.5,12.3 475.0,11.5 477.5,10.8 480.0,10.1 482.5,9.4 485.0,8.8 487.5,8.2 490.0,7.6 492.5,7.1 495.0,6.7 497.5,6.3 500.0,5.9 502.5,5.7 505.0,5.4 507.5,5.3 510.0,5.3 512.5,5.3 515.0,5.4 517.5,5.5 520.0,5.8 522.5,6.2 525.0,6.6 527.5,7.1 530.0,7.7 532.5,8.4 535.0,9.2 537.5,10.0 540.0,11.0 542.5,12.0 545.0,13.1 547.5,14.3 550.0,15.5 552.5,16.8 555.0,18.2 557.5,19.6 560.0,21.1 562.5,22.6 565.0,24.2 567.5,25.8 570.0,27.4 572.5,29.1 575.0,30.8 577.5,32.5 580.0,34.2 582.5,35.9 585.0,37.6 587.5,39.3 590.0,40.9 592.5,42.6 595.0,44.2 597.5,45.8 600.0,47.3 602.5,48.8 605.0,50.2 607.5,51.6 610.0,52.9 612.5,54.2 615.0,55.3 617.5,56.4 620.0,57.5 622.5,58.4 625.0,59.2 627.5,60.0 630.0,60.7 632.5,61.2 635.0,61.7 637.5,62.1 640.0,62.4 642.5,62.6 645.0,62.7 647.5,62.7 650.0,62.6 652.5,62.5 655.0,62.2 657.5,61.9 660.0,61.5 662.5,61.0 665.0,60.4 667.5,59.8 670.0,59.1 672.5,58.4 675.0,57.5 677.5,56.7 680.0,55.8 682.5,54.8 685.0,53.8 687.5,52.8 690.0,51.8 692.5,50.7 695.0,49.6 697.5,48.5 700.0,47.4 702.5,46.4 705.0,45.3 707.5,44.2 710.0,43.1 712.5,42.1 715.0,41.1 717.5,40.1 720.0,39.1 722.5,38.2 725.0,37.3 727.5,36.4 730.0,35.6 732.5,34.9 735.0,34.1 737.5,33.4 740.0,32.8 742.5,32.2 745.0,31.7 747.5,31.2 750.0,30.7 752.5,30.3 755.0,29.9 757.5,29.6 760.0,29.3 762.5,29.0 765.0,28.8 767.5,28.6 770.0,28.4 772.5,28.3 775.0,28.2 777.5,28.1 780.0,28.0 782.5,27.9 785.0,27.8 787.5,27.8 790.0,27.7 792.5,27.6 795.0,27.5 797.5,27.4 800.0,27.3 802.5,27.2 805.0,27.1 807.5,26.9 810.0,26.7 812.5,26.5 815.0,26.2 817.5,25.9 820.0,25.6 822.5,25.3 825.0,24.9 827.5,24.5 830.0,24.0 832.5,23.5 835.0,23.0 837.5,22.4 840.0,21.8 842.5,21.2 845.0,20.5 847.5,19.9 850.0,19.2 852.5,18.4 855.0,17.7 857.5,16.9 860.0,16.2 862.5,15.4 865.0,14.6 867.5,13.8 870.0,13.0 872.5,12.3 875.0,11.5 877.5,10.8 880.0,10.1 882.5,9.4 885.0,8.8 887.5,8.2 890.0,7.6 892.5,7.1 895.0,6.7 897.5,6.3 900.0,5.9 902.5,5.7 905.0,5.4 907.5,5.3 910.0,5.3 912.5,5.3 915.0,5.4 917.5,5.5 920.0,5.8 922.5,6.2 925.0,6.6 927.5,7.1 930.0,7.7 932.5,8.4 935.0,9.2 937.5,10.0 940.0,11.0 942.5,12.0 945.0,13.1 947.5,14.3 950.0,15.5 952.5,16.8 955.0,18.2 957.5,19.6 960.0,21.1 962.5,22.6 965.0,24.2 967.5,25.8 970.0,27.4 972.5,29.1 975.0,30.8 977.5,32.5 980.0,34.2 982.5,35.9 985.0,37.6 987.5,39.3 990.0,40.9 992.5,42.6 995.0,44.2 997.5,45.8 1000.0,47.3 1002.5,48.8 1005.0,50.2 1007.5,51.6 1010.0,52.9 1012.5,54.2 1015.0,55.3 1017.5,56.4 1020.0,57.5 1022.5,58.4 1025.0,59.2 1027.5,60.0 1030.0,60.7 1032.5,61.2 1035.0,61.7 1037.5,62.1 1040.0,62.4 1042.5,62.6 1045.0,62.7 1047.5,62.7 1050.0,62.6 1052.5,62.5 1055.0,62.2 1057.5,61.9 1060.0,61.5 1062.5,61.0 1065.0,60.4 1067.5,59.8 1070.0,59.1 1072.5,58.4 1075.0,57.5 1077.5,56.7 1080.0,55.8 1082.5,54.8 1085.0,53.8 1087.5,52.8 1090.0,51.8 1092.5,50.7 1095.0,49.6 1097.5,48.5 1100.0,47.4 1102.5,46.4 1105.0,45.3 1107.5,44.2 1110.0,43.1 1112.5,42.1 1115.0,41.1 1117.5,40.1 1120.0,39.1 1122.5,38.2 1125.0,37.3 1127.5,36.4 1130.0,35.6 1132.5,34.9 1135.0,34.1 1137.5,33.4 1140.0,32.8 1142.5,32.2 1145.0,31.7 1147.5,31.2 1150.0,30.7 1152.5,30.3 1155.0,29.9 1157.5,29.6 1160.0,29.3 1162.5,29.0 1165.0,28.8 1167.5,28.6 1170.0,28.4 1172.5,28.3 1175.0,28.2 1177.5,28.1 1180.0,28.0 1182.5,27.9 1185.0,27.8 1187.5,27.8 1190.0,27.7 1192.5,27.6 1195.0,27.5 1197.5,27.4 1200.0,27.3"/><polyline points="0.0,1.4 2.5,1.8 5.0,2.2 7.5,2.7 10.0,3.3 12.5,4.0 15.0,4.7 17.5,5.5 20.0,6.3 22.5,7.2 25.0,8.1 27.5,9.1 30.0,10.1 32.5,11.2 35.0,12.2 37.5,13.3 40.0,14.5 42.5,15.6 45.0,16.7 47.5,17.8 50.0,19.0 52.5,20.1 55.0,21.2 57.5,22.2 60.0,23.3 62.5,24.3 65.0,25.3 67.5,26.3 70.0,27.2 72.5,28.1 75.0,29.0 77.5,29.8 80.0,30.5 82.5,31.3 85.0,31.9 87.5,32.6 90.0,33.1 92.5,33.7 95.0,34.1 97.5,34.6 100.0,35.0 102.5,35.3 105.0,35.6 107.5,35.9 110.0,36.2 112.5,36.4 115.0,36.5 117.5,36.7 120.0,36.8 122.5,36.9 125.0,37.0 127.5,37.1 130.0,37.2 132.5,37.2 135.0,37.3 137.5,37.3 140.0,37.4 142.5,37.5 145.0,37.6 147.5,37.7 150.0,37.8 152.5,37.9 155.0,38.1 157.5,38.3 160.0,38.5 162.5,38.8 165.0,39.0 167.5,39.3 170.0,39.7 172.5,40.1 175.0,40.5 177.5,40.9 180.0,41.4 182.5,41.9 185.0,42.5 187.5,43.1 190.0,43.7 192.5,44.3 195.0,45.0 197.5,45.7 200.0,46.4 202.5,47.1 205.0,47.8 207.5,48.5 210.0,49.3 212.5,50.0 215.0,50.8 217.5,51.5 220.0,52.2 222.5,52.9 225.0,53.6 227.5,54.2 230.0,54.8 232.5,55.4 235.0,55.9 237.5,56.4 240.0,56.8 242.5,57.2 245.0,57.5 247.5,57.8 250.0,58.0 252.5,58.1 255.0,58.1 257.5,58.1 260.0,58.0 262.5,57.8 265.0,57.5 267.5,57.2 270.0,56.8 272.5,56.2 275.0,55.6 277.5,54.9 280.0,54.2 282.5,53.3 285.0,52.4 287.5,51.4 290.0,50.3 292.5,49.1 295.0,47.9 297.5,46.6 300.0,45.2 302.5,43.8 305.0,42.3 307.5,40.8 310.0,39.3 312.5,37.7 315.0,36.0 317.5,34.4 320.0,32.7 322.5,31.0 325.0,29.3 327.5,27.6 330.0,25.9 332.5,24.2 335.0,22.6 337.5,20.9 340.0,19.3 342.5,17.7 345.0,16.2 347.5,14.7 350.0,13.3 352.5,11.9 355.0,10.6 357.5,9.4 360.0,8.2 362.5,7.1 365.0,6.1 367.5,5.2 370.0,4.3 372.5,3.6 375.0,2.9 377.5,2.3 380.0,1.9 382.5,1.5 385.0,1.2 387.5,1.0 390.0,0.9 392.5,0.9 395.0,1.0 397.5,1.2 400.0,1.4 402.5,1.8 405.0,2.2 407.5,2.7 410.0,3.3 412.5,4.0 415.0,4.7 417.5,5.5 420.0,6.3 422.5,7.2 425.0,8.1 427.5,9.1 430.0,10.1 432.5,11.2 435.0,12.2 437.5,13.3 440.0,14.5 442.5,15.6 445.0,16.7 447.5,17.8 450.0,19.0 452.5,20.1 455.0,21.2 457.5,22.2 460.0,23.3 462.5,24.3 465.0,25.3 467.5,26.3 470.0,27.2 472.5,28.1 475.0,29.0 477.5,29.8 480.0,30.5 482.5,31.3 485.0,31.9 487.5,32.6 490.0,33.1 492.5,33.7 495.0,34.1 497.5,34.6 500.0,35.0 502.5,35.3 505.0,35.6 507.5,35.9 510.0,36.2 512.5,36.4 515.0,36.5 517.5,36.7 520.0,36.8 522.5,36.9 525.0,37.0 527.5,37.1 530.0,37.2 532.5,37.2 535.0,37.3 537.5,37.3 540.0,37.4 542.5,37.5 545.0,37.6 547.5,37.7 550.0,37.8 552.5,37.9 555.0,38.1 557.5,38.3 560.0,38.5 562.5,38.8 565.0,39.0 567.5,39.3 570.0,39.7 572.5,40.1 575.0,40.5 577.5,40.9 580.0,41.4 582.5,41.9 585.0,42.5 587.5,43.1 590.0,43.7 592.5,44.3 595.0,45.0 597.5,45.7 600.0,46.4 602.5,47.1 605.0,47.8 607.5,48.5 610.0,49.3 612.5,50.0 615.0,50.8 617.5,51.5 620.0,52.2 622.5,52.9 625.0,53.6 627.5,54.2 630.0,54.8 632.5,55.4 635.0,55.9 637.5,56.4 640.0,56.8 642.5,57.2 645.0,57.5 647.5,57.8 650.0,58.0 652.5,58.1 655.0,58.1 657.5,58.1 660.0,58.0 662.5,57.8 665.0,57.5 667.5,57.2 670.0,56.8 672.5,56.2 675.0,55.6 677.5,54.9 680.0,54.2 682.5,53.3 685.0,52.4 687.5,51.4 690.0,50.3 692.5,49.1 695.0,47.9 697.5,46.6 700.0,45.2 702.5,43.8 705.0,42.3 707.5,40.8 710.0,39.3 712.5,37.7 715.0,36.0 717.5,34.4 720.0,32.7 722.5,31.0 725.0,29.3 727.5,27.6 730.0,25.9 732.5,24.2 735.0,22.6 737.5,20.9 740.0,19.3 742.5,17.7 745.0,16.2 747.5,14.7 750.0,13.3 752.5,11.9 755.0,10.6 757.5,9.4 760.0,8.2 762.5,7.1 765.0,6.1 767.5,5.2 770.0,4.3 772.5,3.6 775.0,2.9 777.5,2.3 780.0,1.9 782.5,1.5 785.0,1.2 787.5,1.0 790.0,0.9 792.5,0.9 795.0,1.0 797.5,1.2 800.0,1.4 802.5,1.8 805.0,2.2 807.5,2.7 810.0,3.3 812.5,4.0 815.0,4.7 817.5,5.5 820.0,6.3 822.5,7.2 825.0,8.1 827.5,9.1 830.0,10.1 832.5,11.2 835.0,12.2 837.5,13.3 840.0,14.5 842.5,15.6 845.0,16.7 847.5,17.8 850.0,19.0 852.5,20.1 855.0,21.2 857.5,22.2 860.0,23.3 862.5,24.3 865.0,25.3 867.5,26.3 870.0,27.2 872.5,28.1 875.0,29.0 877.5,29.8 880.0,30.5 882.5,31.3 885.0,31.9 887.5,32.6 890.0,33.1 892.5,33.7 895.0,34.1 897.5,34.6 900.0,35.0 902.5,35.3 905.0,35.6 907.5,35.9 910.0,36.2 912.5,36.4 915.0,36.5 917.5,36.7 920.0,36.8 922.5,36.9 925.0,37.0 927.5,37.1 930.0,37.2 932.5,37.2 935.0,37.3 937.5,37.3 940.0,37.4 942.5,37.5 945.0,37.6 947.5,37.7 950.0,37.8 952.5,37.9 955.0,38.1 957.5,38.3 960.0,38.5 962.5,38.8 965.0,39.0 967.5,39.3 970.0,39.7 972.5,40.1 975.0,40.5 977.5,40.9 980.0,41.4 982.5,41.9 985.0,42.5 987.5,43.1 990.0,43.7 992.5,44.3 995.0,45.0 997.5,45.7 1000.0,46.4 1002.5,47.1 1005.0,47.8 1007.5,48.5 1010.0,49.3 1012.5,50.0 1015.0,50.8 1017.5,51.5 1020.0,52.2 1022.5,52.9 1025.0,53.6 1027.5,54.2 1030.0,54.8 1032.5,55.4 1035.0,55.9 1037.5,56.4 1040.0,56.8 1042.5,57.2 1045.0,57.5 1047.5,57.8 1050.0,58.0 1052.5,58.1 1055.0,58.1 1057.5,58.1 1060.0,58.0 1062.5,57.8 1065.0,57.5 1067.5,57.2 1070.0,56.8 1072.5,56.2 1075.0,55.6 1077.5,54.9 1080.0,54.2 1082.5,53.3 1085.0,52.4 1087.5,51.4 1090.0,50.3 1092.5,49.1 1095.0,47.9 1097.5,46.6 1100.0,45.2 1102.5,43.8 1105.0,42.3 1107.5,40.8 1110.0,39.3 1112.5,37.7 1115.0,36.0 1117.5,34.4 1120.0,32.7 1122.5,31.0 1125.0,29.3 1127.5,27.6 1130.0,25.9 1132.5,24.2 1135.0,22.6 1137.5,20.9 1140.0,19.3 1142.5,17.7 1145.0,16.2 1147.5,14.7 1150.0,13.3 1152.5,11.9 1155.0,10.6 1157.5,9.4 1160.0,8.2 1162.5,7.1 1165.0,6.1 1167.5,5.2 1170.0,4.3 1172.5,3.6 1175.0,2.9 1177.5,2.3 1180.0,1.9 1182.5,1.5 1185.0,1.2 1187.5,1.0 1190.0,0.9 1192.5,0.9 1195.0,1.0 1197.5,1.2 1200.0,1.4"/><polyline points="0.0,6.5 2.5,6.5 5.0,6.6 7.5,6.8 10.0,7.1 12.5,7.5 15.0,7.9 17.5,8.4 20.0,9.0 22.5,9.7 25.0,10.5 27.5,11.3 30.0,12.3 32.5,13.3 35.0,14.4 37.5,15.5 40.0,16.7 42.5,18.0 45.0,19.4 47.5,20.8 50.0,22.3 52.5,23.8 55.0,25.3 57.5,26.9 60.0,28.5 62.5,30.2 65.0,31.9 67.5,33.5 70.0,35.2 72.5,36.9 75.0,38.6 77.5,40.3 80.0,41.9 82.5,43.6 85.0,45.2 87.5,46.8 90.0,48.3 92.5,49.8 95.0,51.2 97.5,52.6 100.0,53.9 102.5,55.1 105.0,56.3 107.5,57.3 110.0,58.3 112.5,59.3 115.0,60.1 117.5,60.8 120.0,61.5 122.5,62.1 125.0,62.5 127.5,62.9 130.0,63.2 132.5,63.4 135.0,63.4 137.5,63.4 140.0,63.3 142.5,63.1 145.0,62.9 147.5,62.5 150.0,62.1 152.5,61.5 155.0,60.9 157.5,60.3 160.0,59.5 162.5,58.7 165.0,57.8 167.5,56.9 170.0,56.0 172.5,55.0 175.0,53.9 177.5,52.8 180.0,51.7 182.5,50.6 185.0,49.4 187.5,48.3 190.0,47.1 192.5,46.0 195.0,44.8 197.5,43.7 200.0,42.5 202.5,41.4 205.0,40.3 207.5,39.2 210.0,38.2 212.5,37.2 215.0,36.2 217.5,35.3 220.0,34.4 222.5,33.6 225.0,32.8 227.5,32.0 230.0,31.3 232.5,30.7 235.0,30.1 237.5,29.5 240.0,29.0 242.5,28.5 245.0,28.1 247.5,27.7 250.0,27.4 252.5,27.1 255.0,26.9 257.5,26.7 260.0,26.5 262.5,26.3 265.0,26.2 267.5,26.1 270.0,26.0 272.5,25.9 275.0,25.9 277.5,25.8 280.0,25.8 282.5,25.7 285.0,25.7 287.5,25.6 290.0,25.5 292.5,25.5 295.0,25.4 297.5,25.3 300.0,25.1 302.5,25.0 305.0,24.8 307.5,24.6 310.0,24.3 312.5,24.1 315.0,23.8 317.5,23.4 320.0,23.0 322.5,22.6 325.0,22.2 327.5,21.7 330.0,21.2 332.5,20.7 335.0,20.1 337.5,19.5 340.0,18.9 342.5,18.3 345.0,17.6 347.5,17.0 350.0,16.3 352.5,15.6 355.0,14.9 357.5,14.2 360.0,13.5 362.5,12.8 365.0,12.1 367.5,11.5 370.0,10.8 372.5,10.2 375.0,9.6 377.5,9.1 380.0,8.6 382.5,8.1 385.0,7.7 387.5,7.3 390.0,7.0 392.5,6.8 395.0,6.6 397.5,6.5 400.0,6.5 402.5,6.5 405.0,6.6 407.5,6.8 410.0,7.1 412.5,7.5 415.0,7.9 417.5,8.4 420.0,9.0 422.5,9.7 425.0,10.5 427.5,11.3 430.0,12.3 432.5,13.3 435.0,14.4 437.5,15.5 440.0,16.7 442.5,18.0 445.0,19.4 447.5,20.8 450.0,22.3 452.5,23.8 455.0,25.3 457.5,26.9 460.0,28.5 462.5,30.2 465.0,31.9 467.5,33.5 470.0,35.2 472.5,36.9 475.0,38.6 477.5,40.3 480.0,41.9 482.5,43.6 485.0,45.2 487.5,46.8 490.0,48.3 492.5,49.8 495.0,51.2 497.5,52.6 500.0,53.9 502.5,55.1 505.0,56.3 507.5,57.3 510.0,58.3 512.5,59.3 515.0,60.1 517.5,60.8 520.0,61.5 522.5,62.1 525.0,62.5 527.5,62.9 530.0,63.2 532.5,63.4 535.0,63.4 537.5,63.4 540.0,63.3 542.5,63.1 545.0,62.9 547.5,62.5 550.0,62.1 552.5,61.5 555.0,60.9 557.5,60.3 560.0,59.5 562.5,58.7 565.0,57.8 567.5,56.9 570.0,56.0 572.5,55.0 575.0,53.9 577.5,52.8 580.0,51.7 582.5,50.6 585.0,49.4 587.5,48.3 590.0,47.1 592.5,46.0 595.0,44.8 597.5,43.7 600.0,42.5 602.5,41.4 605.0,40.3 607.5,39.2 610.0,38.2 612.5,37.2 615.0,36.2 617.5,35.3 620.0,34.4 622.5,33.6 625.0,32.8 627.5,32.0 630.0,31.3 632.5,30.7 635.0,30.1 637.5,29.5 640.0,29.0 642.5,28.5 645.0,28.1 647.5,27.7 650.0,27.4 652.5,27.1 655.0,26.9 657.5,26.7 660.0,26.5 662.5,26.3 665.0,26.2 667.5,26.1 670.0,26.0 672.5,25.9 675.0,25.9 677.5,25.8 680.0,25.8 682.5,25.7 685.0,25.7 687.5,25.6 690.0,25.5 692.5,25.5 695.0,25.4 697.5,25.3 700.0,25.1 702.5,25.0 705.0,24.8 707.5,24.6 710.0,24.3 712.5,24.1 715.0,23.8 717.5,23.4 720.0,23.0 722.5,22.6 725.0,22.2 727.5,21.7 730.0,21.2 732.5,20.7 735.0,20.1 737.5,19.5 740.0,18.9 742.5,18.3 745.0,17.6 747.5,17.0 750.0,16.3 752.5,15.6 755.0,14.9 757.5,14.2 760.0,13.5 762.5,12.8 765.0,12.1 767.5,11.5 770.0,10.8 772.5,10.2 775.0,9.6 777.5,9.1 780.0,8.6 782.5,8.1 785.0,7.7 787.5,7.3 790.0,7.0 792.5,6.8 795.0,6.6 797.5,6.5 800.0,6.5 802.5,6.5 805.0,6.6 807.5,6.8 810.0,7.1 812.5,7.5 815.0,7.9 817.5,8.4 820.0,9.0 822.5,9.7 825.0,10.5 827.5,11.3 830.0,12.3 832.5,13.3 835.0,14.4 837.5,15.5 840.0,16.7 842.5,18.0 845.0,19.4 847.5,20.8 850.0,22.3 852.5,23.8 855.0,25.3 857.5,26.9 860.0,28.5 862.5,30.2 865.0,31.9 867.5,33.5 870.0,35.2 872.5,36.9 875.0,38.6 877.5,40.3 880.0,41.9 882.5,43.6 885.0,45.2 887.5,46.8 890.0,48.3 892.5,49.8 895.0,51.2 897.5,52.6 900.0,53.9 902.5,55.1 905.0,56.3 907.5,57.3 910.0,58.3 912.5,59.3 915.0,60.1 917.5,60.8 920.0,61.5 922.5,62.1 925.0,62.5 927.5,62.9 930.0,63.2 932.5,63.4 935.0,63.4 937.5,63.4 940.0,63.3 942.5,63.1 945.0,62.9 947.5,62.5 950.0,62.1 952.5,61.5 955.0,60.9 957.5,60.3 960.0,59.5 962.5,58.7 965.0,57.8 967.5,56.9 970.0,56.0 972.5,55.0 975.0,53.9 977.5,52.8 980.0,51.7 982.5,50.6 985.0,49.4 987.5,48.3 990.0,47.1 992.5,46.0 995.0,44.8 997.5,43.7 1000.0,42.5 1002.5,41.4 1005.0,40.3 1007.5,39.2 1010.0,38.2 1012.5,37.2 1015.0,36.2 1017.5,35.3 1020.0,34.4 1022.5,33.6 1025.0,32.8 1027.5,32.0 1030.0,31.3 1032.5,30.7 1035.0,30.1 1037.5,29.5 1040.0,29.0 1042.5,28.5 1045.0,28.1 1047.5,27.7 1050.0,27.4 1052.5,27.1 1055.0,26.9 1057.5,26.7 1060.0,26.5 1062.5,26.3 1065.0,26.2 1067.5,26.1 1070.0,26.0 1072.5,25.9 1075.0,25.9 1077.5,25.8 1080.0,25.8 1082.5,25.7 1085.0,25.7 1087.5,25.6 1090.0,25.5 1092.5,25.5 1095.0,25.4 1097.5,25.3 1100.0,25.1 1102.5,25.0 1105.0,24.8 1107.5,24.6 1110.0,24.3 1112.5,24.1 1115.0,23.8 1117.5,23.4 1120.0,23.0 1122.5,22.6 1125.0,22.2 1127.5,21.7 1130.0,21.2 1132.5,20.7 1135.0,20.1 1137.5,19.5 1140.0,18.9 1142.5,18.3 1145.0,17.6 1147.5,17.0 1150.0,16.3 1152.5,15.6 1155.0,14.9 1157.5,14.2 1160.0,13.5 1162.5,12.8 1165.0,12.1 1167.5,11.5 1170.0,10.8 1172.5,10.2 1175.0,9.6 1177.5,9.1 1180.0,8.6 1182.5,8.1 1185.0,7.7 1187.5,7.3 1190.0,7.0 1192.5,6.8 1195.0,6.6 1197.5,6.5 1200.0,6.5"/></svg>